
<svg xmlns="http://www.w3.org/2000/svg" version="1.1" xmlns:xlink="http://www.w3.org/1999/xlink" preserveAspectRatio="none" x="0px" y="0px" width="45px" height="35px" viewBox="0 0 45 35">
<defs>
<g id="Layer1_0_FILL">
<path fill="#FFCC00" stroke="none" d="
M 21.95 10.2
Q 21.95 11.35 22.15 11.95 12.6 11.45 6.55 4.1 5.6 5.6 5.6 7.8 5.6 12.05 8.95 14.15 7.25 14.15 5.5 13.15
L 5.5 13.3
Q 5.5 15.95 7.25 18.05 8.95 20.15 11.55 20.65
L 9.5 20.9 8.2 20.85
Q 8.95 23.1 10.85 24.55 12.8 26 15.15 26 11.15 29.3 5.8 29.3 4.65 29.3 4.05 29.15 9.15 32.6 15.55 32.6 25.3 32.6 31.45 25.65 37 19.3 37 11.1
L 37 10.1
Q 39.05 8.7 40.8 6.15 38.8 7.15 36.4 7.4 38.9 5.95 39.75 3.2 37.35 4.65 34.95 5 32.8 2.65 29.45 2.65 26.35 2.65 24.15 4.85 21.95 7.15 21.95 10.2 Z"/>
</g>
</defs>

<g transform="matrix( 1, 0, 0, 1, 0,0) ">
<use xlink:href="#Layer1_0_FILL"/>
</g>
</svg>
