
<svg xmlns="http://www.w3.org/2000/svg" version="1.1" xmlns:xlink="http://www.w3.org/1999/xlink" preserveAspectRatio="none" x="0px" y="0px" width="45px" height="35px" viewBox="0 0 45 35">
<defs>
<g id="Layer3_0_FILL">
<path fill="#FFCC00" stroke="none" d="
M 28.35 27.95
Q 27.7 27.65 27 27.65
L 23.65 27.65 23.65 31.05
Q 23.65 31.75 23.9 32.35 24.15 32.95 24.65 33.45 25.1 33.9 25.7 34.15 26.35 34.4 27 34.4 27.7 34.4 28.35 34.15 28.95 33.9 29.4 33.45 29.85 32.95 30.15 32.35 30.4 31.75 30.4 31.05 30.4 30.35 30.15 29.75 29.85 29.15 29.4 28.65 28.95 28.2 28.35 27.95
M 5.7 22.05
Q 5.7 22.75 5.95 23.35 6.2 23.95 6.65 24.45 7.15 24.9 7.75 25.15 8.35 25.4 9.05 25.4 9.75 25.4 10.35 25.15 10.95 24.9 11.45 24.45 11.9 23.95 12.15 23.35 12.4 22.75 12.4 22.05
L 12.4 18.65 9.05 18.65
Q 8.35 18.65 7.75 18.95 7.15 19.2 6.65 19.65 6.2 20.1 5.95 20.75 5.7 21.35 5.7 22.05
M 21.4 22.05
Q 21.4 21.35 21.15 20.75 20.9 20.15 20.4 19.65 19.95 19.2 19.35 18.95 18.7 18.65 18.05 18.65 17.35 18.65 16.7 18.95 16.1 19.2 15.65 19.65 15.2 20.1 14.95 20.75 14.65 21.35 14.65 22.05
L 14.65 31.05
Q 14.65 31.75 14.95 32.35 15.2 32.95 15.65 33.45 16.1 33.9 16.7 34.15 17.35 34.4 18.05 34.4 18.7 34.4 19.35 34.15 19.95 33.9 20.4 33.45 20.9 32.95 21.15 32.35 21.4 31.75 21.4 31.05
L 21.4 22.05
M 23.9 23.35
Q 24.15 23.95 24.65 24.45 25.1 24.9 25.7 25.15 26.35 25.4 27 25.4
L 36 25.4
Q 36.7 25.4 37.3 25.15 37.9 24.9 38.4 24.45 38.85 23.95 39.1 23.35 39.35 22.75 39.35 22.05 39.35 21.35 39.1 20.75 38.85 20.1 38.4 19.65 37.9 19.2 37.3 18.95 36.7 18.65 36 18.65
L 27 18.65
Q 26.35 18.65 25.7 18.95 25.1 19.2 24.65 19.65 24.15 20.1 23.9 20.75 23.65 21.35 23.65 22.05 23.65 22.75 23.9 23.35
M 21.15 11.75
Q 20.9 11.15 20.4 10.65 19.95 10.2 19.35 9.95 18.7 9.65 18.05 9.65
L 9.05 9.65
Q 8.35 9.65 7.75 9.95 7.15 10.2 6.65 10.65 6.2 11.15 5.95 11.75 5.7 12.35 5.7 13.05 5.7 13.75 5.95 14.35 6.2 14.95 6.65 15.45 7.15 15.9 7.75 16.15 8.35 16.4 9.05 16.4
L 18.05 16.4
Q 18.7 16.4 19.35 16.15 19.95 15.9 20.4 15.45 20.9 14.95 21.15 14.35 21.4 13.75 21.4 13.05 21.4 12.35 21.15 11.75
M 21.4 4.05
Q 21.4 3.35 21.15 2.75 20.9 2.15 20.4 1.65 19.95 1.2 19.35 0.95 18.7 0.65 18.05 0.65 17.35 0.65 16.7 0.95 16.1 1.2 15.65 1.65 15.2 2.15 14.95 2.75 14.65 3.35 14.65 4.05 14.65 4.75 14.95 5.35 15.2 5.95 15.65 6.45 16.1 6.9 16.75 7.15 17.35 7.4 18.05 7.4
L 21.4 7.4 21.4 4.05
M 27 0.65
Q 26.35 0.65 25.7 0.95 25.1 1.2 24.65 1.65 24.15 2.15 23.9 2.75 23.65 3.35 23.65 4.05
L 23.65 13.05
Q 23.65 13.75 23.9 14.35 24.15 14.95 24.65 15.45 25.1 15.9 25.7 16.15 26.35 16.4 27 16.4 27.7 16.4 28.35 16.15 28.95 15.9 29.4 15.45 29.85 14.95 30.15 14.35 30.4 13.75 30.4 13.05
L 30.4 4.05
Q 30.4 3.35 30.15 2.75 29.85 2.15 29.4 1.65 28.95 1.2 28.35 0.95 27.7 0.65 27 0.65
M 37.3 9.95
Q 36.7 9.65 36 9.65 35.3 9.65 34.7 9.95 34.1 10.2 33.6 10.65 33.15 11.15 32.9 11.75 32.65 12.35 32.65 13.05
L 32.65 16.4 36 16.4
Q 36.7 16.4 37.3 16.15 37.9 15.9 38.4 15.45 38.85 14.95 39.1 14.35 39.35 13.75 39.35 13.05 39.35 12.35 39.1 11.75 38.85 11.15 38.4 10.65 37.9 10.2 37.3 9.95 Z"/>
</g>
</defs>

<g transform="matrix( 1, 0, 0, 1, 0,0) ">
<use xlink:href="#Layer3_0_FILL"/>
</g>
</svg>
