
<svg xmlns="http://www.w3.org/2000/svg" version="1.1" xmlns:xlink="http://www.w3.org/1999/xlink" preserveAspectRatio="none" x="0px" y="0px" width="45px" height="35px" viewBox="0 0 45 35">
<defs>
<filter id="Filter_1" x="-20%" y="-20%" width="140%" height="140%" color-interpolation-filters="sRGB">
<feColorMatrix in="SourceGraphic" type="matrix" values="0 0 0 0 1 0 0 0 0 0.8 0 0 0 0 0 0 0 0 1 0" result="result1"/>
</filter>

<g id="Symbol_2_0_Layer0_0_FILL">
<path fill="#000000" stroke="none" d="
M 9.4 -8.5
L 5.15 -8.5 2.9 -4.3 0.65 -8.5 -3.6 -8.5 -5.75 -4.45 -7.9 -8.5 -12.15 -8.5 -14.35 -4.35 -16.6 -8.5 -23.5 -8.5 -14.8 8 -10.1 0.95 -5.4 8 -1.5 0.6 2.45 8 7.15 0.95 11.85 8 15.8 0.6 15.8 0.5 20.55 -8.5 13.65 -8.5 11.55 -4.5 9.4 -8.5
M 22.1 6.2
Q 22.1 4.85 21.1 3.85 20.05 2.8 18.65 2.9
L 18.65 2.85
Q 17.2 2.85 16.2 3.85 15.25 4.75 15.2 6.1 15.15 7.4 16.05 8.35
L 16.2 8.55
Q 17.25 9.6 18.65 9.5 20.05 9.6 21.1 8.55 22.1 7.55 22.1 6.2 Z"/>
</g>
</defs>

<g transform="matrix( 0.9850921630859375, 0, 0, 0.9829559326171875, 23.2,17.35) ">
<g transform="matrix( 1, 0, 0, 1, 0,0) ">
<use filter="url(#Filter_1)" xlink:href="#Symbol_2_0_Layer0_0_FILL"/>
</g>
</g>
</svg>
