
<svg xmlns="http://www.w3.org/2000/svg" version="1.1" xmlns:xlink="http://www.w3.org/1999/xlink" preserveAspectRatio="none" x="0px" y="0px" width="45px" height="35px" viewBox="0 0 45 35">
<defs>
<g id="Layer2_0_FILL">
<path fill="#FFCC00" stroke="none" d="
M 28.05 2.5
Q 27.5 3.55 27.05 4.65 22.4 3.95 17.9 4.65 17.5 3.65 16.9 2.5 12.65 3.3 8.7 5.05 5 10.55 3.55 16.4 2.3 21.65 2.85 27.55 7.4 30.9 12.9 32.5 14.1 30.85 15 29.05 13.2 28.45 11.6 27.45
L 12.45 26.8
Q 17.15 29.05 22.45 29.05 27.75 29.05 32.5 26.8
L 33.35 27.45
Q 31.85 28.35 30 29.05 30.85 30.9 32.05 32.5 37.5 30.9 42.15 27.55 43.3 15.35 36.25 5.05 32.35 3.3 28.05 2.5
M 25.55 19
Q 25.55 17.4 26.55 16.2 27.55 15.05 29.05 15.05 30.6 15.05 31.65 16.2 32.6 17.4 32.6 19 32.6 20.7 31.6 21.85 30.55 23 29.05 23 27.55 23 26.6 21.85 25.55 20.7 25.55 19
M 15.9 15.05
Q 17.4 15.05 18.4 16.2 19.45 17.4 19.45 19 19.45 20.7 18.4 21.85 17.4 23 15.9 23 14.4 23 13.35 21.85 12.3 20.7 12.3 19 12.3 17.4 13.35 16.2 14.4 15.05 15.9 15.05 Z"/>
</g>
</defs>

<g transform="matrix( 1, 0, 0, 1, 0,0) ">
<use xlink:href="#Layer2_0_FILL"/>
</g>
</svg>
