
<svg xmlns="http://www.w3.org/2000/svg" version="1.1" xmlns:xlink="http://www.w3.org/1999/xlink" preserveAspectRatio="none" x="0px" y="0px" width="45px" height="35px" viewBox="0 0 45 35">
<defs>
<g id="Layer0_0_FILL">
<path fill="#FFCC00" stroke="none" d="
M 17.45 86.7
Q 16.5 86.65 15.75 87.4 15 88.1 15 89.1
L 15 117.65
Q 15 118.65 15.75 119.35 16.45 120.05 17.45 120.05
L 45.9 120.05
Q 46.9 120.05 47.65 119.35 48.35 118.65 48.4 117.65
L 48.4 89.1
Q 48.35 88.1 47.65 87.35 46.9 86.65 45.9 86.7
L 17.45 86.7
M 24.45 96.15
Q 23.6 97 22.45 97 21.25 97 20.4 96.15 19.55 95.35 19.55 94.15 19.55 92.95 20.4 92.1 21.25 91.25 22.45 91.25 23.6 91.25 24.45 92.1 25.3 92.95 25.3 94.15 25.3 95.35 24.45 96.15
M 42.35 101
Q 43.45 102.7 43.45 106.4
L 43.45 115.1 38.5 115.1 38.5 107.35
Q 38.5 105.4 38.15 104.55 37.6 103.15 35.95 103.15 34.2 103.15 33.5 104.4 32.95 105.35 32.95 107.25
L 32.95 115.1 28 115.1 28 99.2 32.75 99.2 32.75 101.35 32.85 101.35
Q 33.55 100.15 34.8 99.45 36.1 98.75 37.5 98.8 41 98.8 42.35 101
M 24.9 99.2
L 24.9 115.1 19.95 115.1 19.95 99.2 24.9 99.2 Z"/>
</g>
</defs>

<g transform="matrix( 0.8922119140625, 0, 0, 0.8922119140625, -5.75,-74.7) ">
<use xlink:href="#Layer0_0_FILL"/>
</g>
</svg>
