
<svg xmlns="http://www.w3.org/2000/svg" version="1.1" xmlns:xlink="http://www.w3.org/1999/xlink" preserveAspectRatio="none" x="0px" y="0px" width="350px" height="505px" viewBox="0 0 350 505">
<defs>
<filter id="Filter_1" x="-20%" y="-20%" width="140%" height="140%" color-interpolation-filters="sRGB">
<feColorMatrix in="SourceGraphic" type="matrix" values="0 0 0 0 0.3686274509803922 0 0 0 0 0.47058823529411764 0 0 0 0 0.49411764705882355 0 0 0 1 0" result="result1"/>
</filter>

<filter id="Filter_2" x="-20%" y="-20%" width="140%" height="140%" color-interpolation-filters="sRGB">
<feColorMatrix in="SourceGraphic" type="matrix" values="0 0 0 0 0.050980392156862744 0 0 0 0 0.6235294117647059 0 0 0 0 0.6549019607843137 0 0 0 1 0" result="result1"/>
</filter>

<filter id="Filter_3" x="-20%" y="-20%" width="140%" height="140%" color-interpolation-filters="sRGB">
<feColorMatrix in="SourceGraphic" type="matrix" values="0 0 0 0 1 0 0 0 0 0.8 0 0 0 0 0 0 0 0 1 0" result="result1"/>
</filter>

<g id="Symbol_4_copy_4_0_Layer0_0_FILL">
<path fill="#000000" stroke="none" d="
M 21.25 47.9
L 21.25 47.95
Q 20.1462890625 54.5595703125 13.95 56.1
L 13.9 56.1 7.95 57.7
Q 7.486328125 57.8265625 7.15 58.2 6.888671875 58.595703125 6.85 59.05 6.85078125 59.099609375 6.85 59.15 6.8447265625 59.65078125 7.15 60.05 7.4607421875 60.4603515625 7.95 60.6
L 13.9 62.2
Q 13.9388671875 62.1998046875 13.95 62.2 20.1513671875 63.6576171875 21.25 70.3
L 21.25 70.3 23.7 82.7
Q 23.83125 83.2529296875 24.25 83.6 24.666015625 83.9458984375 25.2 83.95 25.7326171875 83.9462890625 26.15 83.6 26.567578125 83.2671875 26.65 82.75
L 29.15 70.35 29.15 70.3
Q 30.2986328125 63.6576171875 36.45 62.2 36.5109375 62.1998046875 36.55 62.2
L 42.5 60.6
Q 42.9892578125 60.4603515625 43.3 60.05 43.60546875 59.65078125 43.6 59.15 43.59921875 59.099609375 43.6 59.05 43.5615234375 58.5958984375 43.25 58.2 42.963671875 57.8265625 42.45 57.7
L 36.5 56.1 36.5 56.1
Q 30.3041015625 54.5560546875 29.15 47.9
L 29.15 47.85 26.65 35.5
Q 26.5662109375 34.982421875 26.15 34.65 25.733984375 34.3052734375 25.2 34.3 24.666015625 34.3052734375 24.25 34.65 23.83359375 34.982421875 23.7 35.5
L 21.25 47.9
M -7.55 -66.7
Q -7.6 -67.3 -8.15 -67.75 -8.8 -68.15 -9.65 -68.15 -10.45 -68.15 -11.05 -67.75 -11.65 -67.3 -11.7 -66.7
L -13.5 -30.3
Q -13.75 -21.3 -15.25 -14 -17 -4.95 -20.45 1.15 -21 2.2 -21.6 3.1 -21.95 3.5 -22.3 3.95 -27.1 8.95 -34.85 9.85 -34.95 9.85 -35.1 9.85
L -42.7 10.95
Q -43.75 11.05 -44.4 11.7 -45.15 12.35 -45.15 13.1 -45.15 13.85 -44.5 14.5 -43.8 15.1 -42.7 15.25
L -35.1 16.4
Q -35 16.4 -34.85 16.4 -27.85 17.15 -23.25 21.45 -23 21.7 -22.75 21.9 -22.55 22.15 -22.3 22.4 -21.9 22.8 -21.6 23.25 -21.25 23.65 -21 24.05 -20.7 24.55 -20.45 25
L -20.45 25.05
Q -17 31.25 -15.2 40.25 -13.75 47.6 -13.45 56.55
L -13.4 57.5 -13.45 57.5 -11.7 92.75
Q -11.65 93.35 -11.1 93.8 -10.45 94.2 -9.6 94.2 -8.8 94.2 -8.2 93.8 -7.6 93.35 -7.55 92.75
L -6.5 71.55 -6.45 71.55 -5.75 56.55
Q -5.5 47.55 -4.05 40.25 -2.5 32.5 0.3 26.9 0.7 25.95 1.2 25.05 1.75 24.05 2.4 23.15 2.6 22.85 3.4 21.95 4.7 20.7 6.15 19.7 10.15 17 15.55 16.4 15.7 16.4 15.8 16.4
L 23.5 15.25
Q 24.6 15.1 25.25 14.5 25.9 13.85 25.9 13.1 25.9 12.35 25.25 11.7 24.6 11.05 23.5 10.95
L 15.8 9.85
Q 15.7 9.85 15.55 9.85 7.9 8.95 3.05 3.95 2.65 3.5 2.35 3.1 1.75 2.2 1.15 1.15 -2.25 -5 -4.05 -14 -5.5 -21.35 -5.75 -30.3
L -7.55 -66.7 Z"/>
</g>

<g id="Logo_0_Layer0_0_MEMBER_2_FILL">
<path fill="#333333" stroke="none" d="
M 2446.05 1178.95
Q 2405.4 1138.35 2348 1138.35 2290.6 1138.35 2249.95 1178.95 2246.2 1182.75 2242.8 1186.7 2210.658203125 1223.4541015625 2209.4 1272.95 2209.35 1274.964453125 2209.35 1277 2209.35 1312.25 2224.7 1341.2 2234.3 1359.4 2249.95 1375.05 2290.6 1415.65 2348 1415.65 2405.4 1415.65 2446.05 1375.05 2461.7 1359.4 2471.35 1341.2 2486.65 1312.25 2486.65 1277 2486.65 1274.964453125 2486.6 1272.95 2485.9640625 1247.7998046875 2477.4 1225.95 2467.25 1200.15 2446.05 1178.95 Z"/>
</g>

<g id="Logo_0_Layer0_0_MEMBER_3_MEMBER_0_FILL">
<path fill="#5E6C73" stroke="none" d="
M 131.55 -7.05
Q 138.65 -14.1 138.65 -24.05
L 138.65 -50 -138.65 -50 -138.65 -24.05
Q -138.65 -14.1 -131.5 -7.05 -124.4 0 -114.35 0
L 114.35 0
Q 124.4 0 131.55 -7.05 Z"/>
</g>

<g id="Logo_0_Layer0_0_MEMBER_3_MEMBER_1_FILL">
<path fill="#333333" stroke="none" d="
M 2214.1 1494.85
Q 2218.85 1499.5 2225.6 1499.5
L 2470.4 1499.5
Q 2477.15 1499.5 2481.9 1494.85 2486.65 1490.15 2486.65 1483.5
L 2486.65 1276.85 2209.35 1276.85 2209.35 1483.5
Q 2209.35 1490.15 2214.1 1494.85 Z"/>
</g>

<g id="Logo_0_Layer0_0_MEMBER_3_MEMBER_2_FILL">
<path fill="#D8FFFF" stroke="none" d="
M -18.3 -76.9
L -18.4 -76.9
Q -21.2 -82.4 -29.5 -82.4 -36.75 -82.4 -41.25 -77.3 -45.8 -72.15 -45.8 -63.75 -45.8 -55.45 -41.55 -50.3 -37.2 -45.15 -29.95 -45.15 -21.15 -45.15 -18.15 -51.6
L -17.95 -51.6
Q -18.05 -50.85 -18.05 -49.8 -18.05 -46 -13.65 -46
L -7 -46 -7 -51.85 -9.95 -51.85
Q -11.5 -51.85 -11.5 -53.35
L -11.5 -91.1
Q -11.5 -95.6 -16.05 -95.6
L -22.9 -95.6 -22.9 -89.75 -20 -89.75
Q -18.4 -89.75 -18.4 -88.2
L -18.4 -79.3
Q -18.4 -77.95 -18.3 -76.9
M -21.4 -54.05
Q -24.2 -51.05 -28.6 -51.05 -33.1 -51.05 -35.95 -54.5 -38.75 -58.05 -38.75 -63.75 -38.75 -69.65 -35.75 -73.15 -32.85 -76.5 -28.45 -76.5 -23.55 -76.5 -20.75 -72.55 -18.2 -69 -18.2 -63.85 -18.2 -57.45 -21.4 -54.05
M -88.1 -64.6
Q -88.1 -56.75 -83.8 -51.65 -79.35 -46.4 -72 -46.4 -64.65 -46.4 -61.25 -51.85
L -61.15 -51.85
Q -61.25 -50.7 -61.25 -49.55
L -61.25 -47.2
Q -61.25 -42.1 -64.6 -39.55 -67.6 -37.3 -72.65 -37.3 -78.05 -37.3 -82.5 -39.7
L -84.85 -34.2
Q -78.85 -31.25 -72.55 -31.25 -64.9 -31.25 -60 -34.95 -54.35 -39.3 -54.35 -47.45
L -54.35 -74.3
Q -54.35 -75.7 -52.8 -75.7
L -50 -75.7 -50 -81.55 -56.65 -81.55
Q -60.65 -81.55 -60.65 -77.95
L -60.65 -76.85 -60.8 -76.85
Q -63.35 -82.4 -72.35 -82.4 -79.65 -82.4 -83.95 -77.3 -88.1 -72.45 -88.1 -64.6
M -61.05 -64.55
Q -61.05 -52.3 -70.65 -52.3 -75.5 -52.3 -78.3 -55.75 -81.05 -59.15 -81.05 -64.75 -81.05 -70.2 -78.5 -73.35 -75.9 -76.5 -71.25 -76.5 -61.05 -76.5 -61.05 -64.55
M -108.4 -75.7
L -105.45 -75.7
Q -103.9 -75.7 -103.9 -74.15
L -103.9 -50.5
Q -103.9 -46 -99.35 -46
L -92.55 -46 -92.55 -51.85 -95.5 -51.85
Q -97.05 -51.85 -97.05 -53.35
L -97.05 -77.05
Q -97.05 -81.55 -101.6 -81.55
L -108.4 -81.55 -108.4 -75.7
M -97.55 -88.5
L -97.55 -95.6 -103.75 -95.6 -103.75 -88.5 -97.55 -88.5
M 12.5 -76.95
Q 16.75 -76.95 18.55 -75.1 20.45 -73.15 20.45 -68.45
L 20.45 -68.1 18.9 -68.1
Q -2.8 -68.1 -2.8 -56 -2.8 -50.95 1 -47.9 4.45 -45.15 9.45 -45.15 18.05 -45.15 20.9 -52.15
L 21.05 -52.15
Q 20.9 -51.3 20.9 -50.1 20.9 -46 25.4 -46
L 31.85 -46 31.85 -51.85 28.95 -51.85
Q 27.35 -51.85 27.35 -53.35
L 27.35 -68.45
Q 27.35 -82.4 12.55 -82.4 8.3 -82.4 5 -81.2 0.1 -79.5 0.1 -75.7
L 0.1 -72.2 6.6 -72.2 6.6 -74.25
Q 6.6 -76.95 12.5 -76.95
M 5.85 -52.4
Q 4.15 -54 4.15 -56.3 4.15 -63.15 18.75 -63.15
L 20.55 -63.15 20.55 -61.95
Q 20.55 -57.7 17.9 -54.3 15.1 -50.65 10.9 -50.65 7.7 -50.65 5.85 -52.4 Z"/>

<path fill="#FC5056" stroke="none" d="
M 72.7 -71.1
Q 71.45 -67.75 71.45 -64.2 71.45 -60.65 72.75 -57.2 74.05 -53.75 76.7 -51.05 79.3 -48.35 83.25 -46.75 87.15 -45.1 92.4 -45.1 96.85 -45.1 100.15 -46.2 103.45 -47.35 105.55 -48.65 107.25 -49.75 107.5 -51.4 107.8 -53.05 106.8 -54.95
L 105.75 -57.05
Q 104.65 -59.1 103.1 -59.45 101.55 -59.75 99.4 -58.65
L 96.55 -57.6 93.9 -57.2
Q 91.85 -57.2 90.45 -57.9 89 -58.65 88.1 -59.75 87.2 -60.85 86.85 -62.1
L 86.45 -64.45 86.8 -66.65
Q 87.15 -67.85 87.95 -68.9 88.75 -69.9 90.15 -70.55 91.5 -71.15 93.45 -71.15
L 95.5 -71 97.55 -70.45
Q 99.6 -69.5 101.1 -69.7 102.6 -69.95 103.8 -71.9
L 105.25 -74.05
Q 106.35 -75.85 106.2 -77.55 106 -79.2 104.15 -80.3 102.35 -81.5 99.4 -82.35 96.5 -83.25 92.4 -83.25 87.15 -83.25 83.2 -81.6 79.25 -79.95 76.6 -77.25 73.95 -74.55 72.7 -71.1
M 61.45 -81.6
L 61.45 -87.6
Q 61.45 -92.2 56.75 -92.2
L 51.65 -92.2
Q 47.05 -92.2 47.05 -87.6
L 47.05 -81.6 46.15 -81.6
Q 41.6 -81.6 41.6 -77.05
L 41.6 -74.9
Q 41.6 -70.35 46.15 -70.35
L 46.55 -70.35 46.55 -58.9
Q 46.55 -54.5 48.45 -51.9 50.4 -49.3 53 -47.9 55.65 -46.5 58.5 -46.05
L 63 -45.6
Q 66 -45.6 67.5 -46.55 69.05 -47.55 69.05 -50.15
L 69.05 -54.1 68.8 -56.05 68 -57.25 66.65 -57.9 64.5 -58.3
Q 61.45 -58.75 61.45 -61.6
L 61.45 -70.35 64.15 -70.35
Q 68.7 -70.35 68.7 -74.9
L 68.7 -77.05
Q 68.7 -81.6 64 -81.6
L 61.45 -81.6 Z"/>
</g>

<g id="Logo_0_Layer0_0_MEMBER_4_FILL">
<path fill="#DA3F43" stroke="none" d="
M 2287.2 1165.6
Q 2281.9 1168.55 2276.85 1172.1 2267.2 1178.8 2258.5 1187.5 2255.05 1190.95 2251.95 1194.6 2248.1 1198.95 2244.75 1203.55 2230.95 1222.4 2225.3 1244.65 2223.4 1251.9 2222.45 1259.5 2221.35 1268.05 2221.35 1277.05 2221.35 1309.25 2235.4 1335.7 2244.2 1352.3 2258.5 1366.6 2295.6 1403.7 2348 1403.7 2400.45 1403.7 2437.55 1366.6 2451.9 1352.3 2460.7 1335.7 2474.65 1309.25 2474.65 1277.05 2474.65 1268.05 2473.55 1259.5 2472.6 1251.9 2470.75 1244.65 2468.9 1237.3 2466.25 1230.4 2460.65 1216.25 2451.4 1203.55 2445.25 1195.2 2437.55 1187.5 2400.45 1150.4 2348 1150.4 2314.45 1150.4 2287.2 1165.6 Z"/>
</g>

<g id="Symbol_2_0_Layer0_0_FILL">
<path fill="#000000" stroke="none" d="
M 99.35 20.25
Q 57 78 0.1 101.6 -56.8 125.15 -94.95 100.7 -108.7 91.95 -117.1 78.8 -107.85 97.55 -91.85 113.55 -53.8 151.6 0 151.6 53.8 151.6 91.85 113.55 129.9 75.5 129.9 21.7 129.9 -0.1 123.7 -19.3 113.8 0.5 99.35 20.25 Z"/>

<path fill="#000000" fill-opacity="0.2980392156862745" stroke="none" d="
M 90.65 -71.35
Q 61.2 -100.15 22.45 -106.45 11.6 -86.65 0 -67.4 -53.8 21.95 -91.85 47.1 -107.85 57.7 -117.1 54.3 -128 50.35 -129.65 27.15 -128.4 53.05 -117.1 66.5 -107.85 77.5 -91.85 80.1 -53.8 86.35 0 41.35 52.95 -2.95 90.65 -71.35 Z"/>

<path fill="#000000" fill-opacity="0.6" stroke="none" d="
M 91.85 -70.15
Q 91.25 -70.75 90.65 -71.35 52.95 -2.95 0 41.35 -53.8 86.35 -91.85 80.1 -107.85 77.5 -117.1 66.5 -128.4 53.05 -129.65 27.15
L -129.9 20.1
Q -129.9 20.9 -129.9 21.7 -129.9 52.9 -117.1 78.8 -108.7 91.95 -94.95 100.7 -56.8 125.15 0.1 101.6 57 78 99.35 20.25 113.8 0.5 123.7 -19.3 122.55 -22.75 121.25 -26.15 111.7 -50.3 91.85 -70.15 Z"/>
</g>

<g id="Symbol_4_copy_0_Layer0_0_FILL">
<path fill="#000000" stroke="none" d="
M 21.25 47.9
L 21.25 47.95
Q 20.1462890625 54.5595703125 13.95 56.1
L 13.9 56.1 7.95 57.7
Q 7.486328125 57.8265625 7.15 58.2 6.888671875 58.595703125 6.85 59.05 6.85078125 59.099609375 6.85 59.15 6.8447265625 59.65078125 7.15 60.05 7.4607421875 60.4603515625 7.95 60.6
L 13.9 62.2
Q 13.9388671875 62.1998046875 13.95 62.2 20.1513671875 63.6576171875 21.25 70.3
L 21.25 70.3 23.7 82.7
Q 23.83125 83.2529296875 24.25 83.6 24.666015625 83.9458984375 25.2 83.95 25.7326171875 83.9462890625 26.15 83.6 26.567578125 83.2671875 26.65 82.75
L 29.15 70.35 29.15 70.3
Q 30.2986328125 63.6576171875 36.45 62.2 36.5109375 62.1998046875 36.55 62.2
L 42.5 60.6
Q 42.9892578125 60.4603515625 43.3 60.05 43.60546875 59.65078125 43.6 59.15 43.59921875 59.099609375 43.6 59.05 43.5615234375 58.5958984375 43.25 58.2 42.963671875 57.8265625 42.45 57.7
L 36.5 56.1 36.5 56.1
Q 30.3041015625 54.5560546875 29.15 47.9
L 29.15 47.85 26.65 35.5
Q 26.5662109375 34.982421875 26.15 34.65 25.733984375 34.3052734375 25.2 34.3 24.666015625 34.3052734375 24.25 34.65 23.83359375 34.982421875 23.7 35.5
L 21.25 47.9
M -7.55 -66.7
Q -7.6 -67.3 -8.15 -67.75 -8.8 -68.15 -9.65 -68.15 -10.45 -68.15 -11.05 -67.75 -11.65 -67.3 -11.7 -66.7
L -13.5 -30.3
Q -13.75 -21.3 -15.25 -14 -17 -4.95 -20.45 1.15 -21 2.2 -21.6 3.1 -21.95 3.5 -22.3 3.95 -27.1 8.95 -34.85 9.85 -34.95 9.85 -35.1 9.85
L -42.7 10.95
Q -43.75 11.05 -44.4 11.7 -45.15 12.35 -45.15 13.1 -45.15 13.85 -44.5 14.5 -43.8 15.1 -42.7 15.25
L -35.1 16.4
Q -35 16.4 -34.85 16.4 -27.85 17.15 -23.25 21.45 -23 21.7 -22.75 21.9 -22.55 22.15 -22.3 22.4 -21.9 22.8 -21.6 23.25 -21.25 23.65 -21 24.05 -20.7 24.55 -20.45 25
L -20.45 25.05
Q -17 31.25 -15.2 40.25 -13.75 47.6 -13.45 56.55
L -13.4 57.5 -13.45 57.5 -11.7 92.75
Q -11.65 93.35 -11.1 93.8 -10.45 94.2 -9.6 94.2 -8.8 94.2 -8.2 93.8 -7.6 93.35 -7.55 92.75
L -6.5 71.55 -6.45 71.55 -5.75 56.55
Q -5.5 47.55 -4.05 40.25 -2.5 32.5 0.3 26.9 0.7 25.95 1.2 25.05 1.75 24.05 2.4 23.15 2.6 22.85 3.4 21.95 4.7 20.7 6.15 19.7 10.15 17 15.55 16.4 15.7 16.4 15.8 16.4
L 23.5 15.25
Q 24.6 15.1 25.25 14.5 25.9 13.85 25.9 13.1 25.9 12.35 25.25 11.7 24.6 11.05 23.5 10.95
L 15.8 9.85
Q 15.7 9.85 15.55 9.85 7.9 8.95 3.05 3.95 2.65 3.5 2.35 3.1 1.75 2.2 1.15 1.15 -2.25 -5 -4.05 -14 -5.5 -21.35 -5.75 -30.3
L -7.55 -66.7 Z"/>
</g>

<path id="Symbol_4_copy_4_0_Layer0_0_1_STROKES" stroke="#000000" stroke-width="8" stroke-linejoin="round" stroke-linecap="butt" fill="none" d="
M -7.55 92.75
Q -7.6 93.35 -8.2 93.8 -8.8 94.2 -9.6 94.2 -10.45 94.2 -11.1 93.8 -11.65 93.35 -11.7 92.75
L -13.45 57.5 -13.4 57.5 -13.45 56.55
Q -13.75 47.6 -15.2 40.25 -17 31.25 -20.45 25.05
L -20.45 25
Q -20.7 24.55 -21 24.05 -21.25 23.65 -21.6 23.25 -21.9 22.8 -22.3 22.4 -22.55 22.15 -22.75 21.9 -23 21.7 -23.25 21.45 -27.85 17.15 -34.85 16.4 -35 16.4 -35.1 16.4
L -42.7 15.25
Q -43.8 15.1 -44.5 14.5 -45.15 13.85 -45.15 13.1 -45.15 12.35 -44.4 11.7 -43.75 11.05 -42.7 10.95
L -35.1 9.85
Q -34.95 9.85 -34.85 9.85 -27.1 8.95 -22.3 3.95 -21.95 3.5 -21.6 3.1 -21 2.2 -20.45 1.15 -17 -4.95 -15.25 -14 -13.75 -21.3 -13.5 -30.3
L -11.7 -66.7
Q -11.65 -67.3 -11.05 -67.75 -10.45 -68.15 -9.65 -68.15 -8.8 -68.15 -8.15 -67.75 -7.6 -67.3 -7.55 -66.7
L -5.75 -30.3
Q -5.5 -21.35 -4.05 -14 -2.25 -5 1.15 1.15 1.75 2.2 2.35 3.1 2.65 3.5 3.05 3.95 7.9 8.95 15.55 9.85 15.7 9.85 15.8 9.85
L 23.5 10.95
Q 24.6 11.05 25.25 11.7 25.9 12.35 25.9 13.1 25.9 13.85 25.25 14.5 24.6 15.1 23.5 15.25
L 15.8 16.4
Q 15.7 16.4 15.55 16.4 10.15 17 6.15 19.7 4.7 20.7 3.4 21.95 2.6 22.85 2.4 23.15 1.75 24.05 1.2 25.05 0.7 25.95 0.3 26.9 -2.5 32.5 -4.05 40.25 -5.5 47.55 -5.75 56.55
L -6.45 71.55 -6.5 71.55 -7.55 92.75 Z"/>

<path id="Logo_0_Layer0_0_MEMBER_1_1_STROKES" stroke="#FFCC00" stroke-width="4" stroke-linejoin="round" stroke-linecap="butt" fill="none" d="
M 842.9 597.1
Q 830.0994140625 571.19921875 830.1 540 830.077734375 491.238671875 861.35 455.475
L 861.375 455.45
Q 864.5966796875 451.7052734375 868.15 448.15 906.2041015625 410.0990234375 960 410.1 1013.795703125 410.0990234375 1051.85 448.15 1071.702734375 468.0060546875 1081.225 492.15 1082.553515625 495.5296875 1083.675 499 1089.9193359375 518.20546875 1089.9 540 1089.90078125 593.795703125 1051.85 631.85 1013.795703125 669.90078125 960 669.9 906.2041015625 669.90078125 868.15 631.85 852.1669921875 615.8654296875 842.9 597.1 Z"/>

<path id="Logo_0_Layer0_0_MEMBER_2_1_STROKES" stroke="#333333" stroke-width="4" stroke-linejoin="round" stroke-linecap="butt" fill="none" d="
M 2446.05 1375.05
Q 2461.7 1359.4 2471.35 1341.2 2486.65 1312.25 2486.65 1277 2486.65 1274.964453125 2486.6 1272.95 2485.9640625 1247.7998046875 2477.4 1225.95 2467.25 1200.15 2446.05 1178.95 2405.4 1138.35 2348 1138.35 2290.6 1138.35 2249.95 1178.95 2246.2 1182.75 2242.8 1186.7 2210.658203125 1223.4541015625 2209.4 1272.95 2209.35 1274.964453125 2209.35 1277 2209.35 1312.25 2224.7 1341.2 2234.3 1359.4 2249.95 1375.05 2290.6 1415.65 2348 1415.65 2405.4 1415.65 2446.05 1375.05 Z"/>

<path id="Logo_0_Layer0_0_MEMBER_3_MEMBER_0_1_STROKES" stroke="#5E6C73" stroke-width="4" stroke-linejoin="round" stroke-linecap="round" fill="none" d="
M -138.65 -24.05
Q -138.65 -14.1 -131.5 -7.05 -124.4 0 -114.35 0
L 114.35 0
Q 124.4 0 131.55 -7.05 138.65 -14.1 138.65 -24.05
L 138.65 -50 -138.65 -50 -138.65 -24.05 Z"/>

<path id="Logo_0_Layer0_0_MEMBER_3_MEMBER_1_1_STROKES" stroke="#333333" stroke-width="4" stroke-linejoin="round" stroke-linecap="round" fill="none" d="
M 2209.35 1276.85
L 2209.35 1483.5
Q 2209.35 1490.15 2214.1 1494.85 2218.85 1499.5 2225.6 1499.5
L 2470.4 1499.5
Q 2477.15 1499.5 2481.9 1494.85 2486.65 1490.15 2486.65 1483.5
L 2486.65 1276.85"/>

<path id="Logo_0_Layer0_0_MEMBER_6_1_STROKES" stroke="#333333" stroke-width="8" stroke-linejoin="round" stroke-linecap="round" fill="none" d="
M 89.55 -148.6
Q 103.9 -162.9 112.7 -179.5 126.65 -205.95 126.65 -238.15 126.65 -247.15 125.55 -255.7 124.6 -263.3 122.75 -270.55 120.9 -277.9 118.25 -284.8 112.65 -298.95 103.4 -311.65 97.25 -320 89.55 -327.7 52.45 -364.8 0 -364.8 -33.55 -364.8 -60.8 -349.6 -66.1 -346.65 -71.15 -343.1 -80.8 -336.4 -89.5 -327.7 -92.95 -324.25 -96.05 -320.6 -99.9 -316.25 -103.25 -311.65 -117.05 -292.8 -122.7 -270.55 -124.6 -263.3 -125.55 -255.7 -126.65 -247.15 -126.65 -238.15 -126.65 -205.95 -112.6 -179.5 -103.8 -162.9 -89.5 -148.6 -52.4 -111.5 0 -111.5 52.45 -111.5 89.55 -148.6 Z"/>

<path id="Logo_0_Layer0_0_MEMBER_7_1_STROKES" stroke="#333333" stroke-width="8" stroke-linejoin="round" stroke-linecap="square" fill="none" d="
M 89.55 -148.6
Q 89.575 -148.6248046875 89.6 -148.65 103.915234375 -162.92890625 112.7 -179.5 126.65 -205.95 126.65 -238.15 126.65 -238.2 126.65 -238.25 126.6439453125 -247.1974609375 125.55 -255.7 124.6 -263.3 122.75 -270.55 120.9 -277.9 118.25 -284.8 112.65 -298.95 103.4 -311.65 97.28984375 -319.9458984375 89.65 -327.6 89.6 -327.65 89.55 -327.7 52.467578125 -364.782421875 0.05 -364.8
L 0 -364.8
Q -33.55 -364.8 -60.8 -349.6 -66.1 -346.65 -71.15 -343.1 -80.7861328125 -336.4095703125 -89.475 -327.725
L -89.5 -327.7
Q -92.95 -324.25 -96.05 -320.6 -99.9 -316.25 -103.25 -311.65 -117.05 -292.8 -122.7 -270.55 -124.6 -263.3 -125.55 -255.7 -126.6439453125 -247.1974609375 -126.65 -238.25 -126.65 -238.2 -126.65 -238.15 -126.65 -205.95 -112.6 -179.5 -103.8 -162.9 -89.5 -148.6 -89.4626953125 -148.5626953125 -89.425 -148.525 -52.347265625 -111.5 0 -111.5
L 0.05 -111.5
Q 52.467578125 -111.517578125 89.55 -148.6 Z"/>
</defs>

<g transform="matrix( 1.2166748046875, 0, 0, 1.2166748046875, 175,500) ">
<g transform="matrix( 1.2983856201171875, 0, 0, 1.2983856201171875, -0.35,-313) ">
<g transform="matrix( 1, 0, 0, 1, 0,0) ">
<use filter="url(#Filter_1)" xlink:href="#Symbol_4_copy_4_0_Layer0_0_FILL"/>

<use filter="url(#Filter_1)" xlink:href="#Symbol_4_copy_4_0_Layer0_0_1_STROKES"/>
</g>
</g>

<g transform="matrix( 1, 0, 0, 1, -960,-778.2) ">
<use xlink:href="#Logo_0_Layer0_0_MEMBER_1_1_STROKES"/>
</g>

<g transform="matrix( 1, 0, 0, 1, -2348,-1515.2) ">
<use xlink:href="#Logo_0_Layer0_0_MEMBER_2_FILL"/>

<use xlink:href="#Logo_0_Layer0_0_MEMBER_2_1_STROKES"/>
</g>

<g transform="matrix( 1, 0, 0, 1, 0,0) ">
<use xlink:href="#Logo_0_Layer0_0_MEMBER_3_MEMBER_0_FILL"/>

<use xlink:href="#Logo_0_Layer0_0_MEMBER_3_MEMBER_0_1_STROKES"/>
</g>

<g transform="matrix( 1, 0, 0, 1, -2348,-1515.2) ">
<use xlink:href="#Logo_0_Layer0_0_MEMBER_3_MEMBER_1_FILL"/>

<use xlink:href="#Logo_0_Layer0_0_MEMBER_3_MEMBER_1_1_STROKES"/>
</g>

<g transform="matrix( 1, 0, 0, 1, 0,0) ">
<use xlink:href="#Logo_0_Layer0_0_MEMBER_3_MEMBER_2_FILL"/>
</g>

<g transform="matrix( 1, 0, 0, 1, -2348,-1515.2) ">
<use xlink:href="#Logo_0_Layer0_0_MEMBER_4_FILL"/>
</g>

<g transform="matrix( 0.954315185546875, 0, 0, 0.954315185546875, 0,-259.35) ">
<g transform="matrix( 1, 0, 0, 1, 0,0) ">
<use filter="url(#Filter_2)" xlink:href="#Symbol_2_0_Layer0_0_FILL"/>
</g>
</g>

<g transform="matrix( 1, 0, 0, 1, 0,0) ">
<use xlink:href="#Logo_0_Layer0_0_MEMBER_6_1_STROKES"/>
</g>

<g transform="matrix( 1, 0, 0, 1, 0,0) ">
<use xlink:href="#Logo_0_Layer0_0_MEMBER_7_1_STROKES"/>
</g>

<g transform="matrix( 1.2983856201171875, 0, 0, 1.2983856201171875, -0.35,-313) ">
<g transform="matrix( 1, 0, 0, 1, 0,0) ">
<use filter="url(#Filter_3)" xlink:href="#Symbol_4_copy_0_Layer0_0_FILL"/>
</g>
</g>
</g>
</svg>
