
<svg xmlns="http://www.w3.org/2000/svg" version="1.1" xmlns:xlink="http://www.w3.org/1999/xlink" preserveAspectRatio="none" x="0px" y="0px" width="300px" height="70px" viewBox="0 0 300 70">
<defs>
<filter id="Filter_1" x="-20%" y="-20%" width="140%" height="140%" color-interpolation-filters="sRGB">
<feColorMatrix in="SourceGraphic" type="matrix" values="0 0 0 0 0.050980392156862744 0 0 0 0 0.6235294117647059 0 0 0 0 0.6549019607843137 0 0 0 1 0" result="result1"/>
</filter>

<g id="Layer0_0_FILL">
<path fill="#DA3F43" stroke="none" d="
M 289.75 27.55
Q 288.6 26.8 286.8 26.2 284.95 25.7 282.45 25.7 279.15 25.7 276.7 26.7 274.25 27.75 272.6 29.45 270.95 31.15 270.15 33.3 269.35 35.45 269.35 37.7 269.35 39.95 270.2 42.1 271 44.3 272.65 46 274.3 47.7 276.75 48.7 279.15 49.75 282.45 49.75 285.2 49.75 287.25 49.05 289.3 48.3 290.6 47.5 291.65 46.8 291.85 45.75 292 44.7 291.4 43.55
L 290.7 42.2
Q 290.05 40.9 289.1 40.7 288.1 40.5 286.8 41.15
L 285 41.85 283.35 42.1
Q 282.05 42.1 281.2 41.65 280.3 41.15 279.75 40.5 279.2 39.8 278.95 39
L 278.7 37.55 278.95 36.15
Q 279.15 35.35 279.65 34.75 280.15 34.1 281 33.7 281.85 33.3 283.05 33.3
L 284.35 33.4 285.6 33.75
Q 286.9 34.35 287.85 34.2 288.8 34.05 289.55 32.85
L 290.4 31.5
Q 291.1 30.35 291 29.25 290.9 28.25 289.75 27.55
M 257 20.05
Q 254.15 20.05 254.15 22.95
L 254.15 26.7 253.55 26.7
Q 250.75 26.7 250.75 29.6
L 250.75 30.95
Q 250.75 33.8 253.55 33.8
L 253.85 33.8 253.85 41.05
Q 253.85 43.8 255 45.45 256.25 47.1 257.85 47.95 259.5 48.85 261.25 49.15
L 264.05 49.4
Q 265.9 49.4 266.85 48.8 267.85 48.2 267.85 46.55
L 267.85 44.05 267.65 42.85 267.2 42.1 266.35 41.65 265 41.4
Q 263.1 41.15 263.1 39.3
L 263.1 33.8 264.8 33.8
Q 267.6 33.8 267.6 30.95
L 267.6 29.6
Q 267.6 26.7 264.7 26.7
L 263.1 26.7 263.1 22.95
Q 263.1 20.05 260.15 20.05
L 257 20.05 Z"/>

<path fill="#D8FFFF" stroke="none" d="
M 244.2 44.55
L 244.2 35.05
Q 244.2 26.25 235 26.25 232.35 26.25 230.3 27 227.25 28.05 227.25 30.45
L 227.25 32.65 231.3 32.65 231.3 31.4
Q 231.3 29.65 234.95 29.65 237.65 29.65 238.75 30.85 239.9 32.1 239.9 35.05
L 239.9 35.25 238.95 35.25
Q 225.45 35.25 225.45 42.9 225.45 46.1 227.8 48 229.95 49.75 233.05 49.75 238.45 49.75 240.2 45.3
L 240.3 45.3
Q 240.2 45.85 240.2 46.65 240.2 49.2 243 49.2
L 247 49.2 247 45.5 245.2 45.5
Q 244.2 45.5 244.2 44.55
M 230.85 45.15
Q 229.75 44.15 229.75 42.7 229.75 38.4 238.85 38.4
L 240 38.4 240 39.15
Q 240 41.8 238.35 43.95 236.6 46.3 234 46.3 232 46.3 230.85 45.15
M 214.7 21.6
Q 215.7 21.6 215.7 22.55
L 215.7 28.2
Q 215.7 29.05 215.8 29.7
L 215.7 29.7
Q 213.95 26.25 208.8 26.25 204.3 26.25 201.5 29.45 198.65 32.7 198.65 38 198.65 43.25 201.3 46.45 204 49.75 208.5 49.75 214 49.75 215.85 45.65
L 215.95 45.65
Q 215.9 46.15 215.9 46.8 215.9 49.2 218.65 49.2
L 222.8 49.2 222.8 45.5 220.95 45.5
Q 220 45.5 220 44.55
L 220 20.75
Q 220 17.9 217.15 17.9
L 212.9 17.9 212.9 21.6 214.7 21.6
M 204.9 32.05
Q 206.7 29.95 209.45 29.95 212.5 29.95 214.25 32.45 215.8 34.7 215.8 37.95 215.8 41.95 213.85 44.1 212.1 46 209.35 46 206.55 46 204.8 43.85 203.05 41.6 203.05 38 203.05 34.3 204.9 32.05
M 182.1 26.25
Q 177.55 26.25 174.85 29.45 172.3 32.5 172.3 37.45 172.3 42.45 175 45.65 177.75 48.95 182.3 48.95 186.9 48.95 189 45.5
L 189.1 45.5
Q 189 46.25 189 46.95
L 189 48.45
Q 189 51.65 186.9 53.25 185.05 54.7 181.9 54.7 178.55 54.7 175.8 53.2
L 174.35 56.65
Q 178.05 58.5 182 58.5 186.75 58.5 189.8 56.15 193.3 53.45 193.3 48.25
L 193.3 31.35
Q 193.3 30.45 194.3 30.45
L 196.05 30.45 196.05 26.8 191.85 26.8
Q 189.4 26.8 189.4 29.05
L 189.4 29.75 189.3 29.75
Q 187.7 26.25 182.1 26.25
M 178.4 43.05
Q 176.7 40.9 176.7 37.35 176.7 33.95 178.25 31.95 179.9 29.95 182.8 29.95 189.15 29.95 189.15 37.5 189.15 45.2 183.15 45.2 180.15 45.2 178.4 43.05
M 165.25 49.2
L 169.5 49.2 169.5 45.5 167.65 45.5
Q 166.7 45.5 166.7 44.55
L 166.7 29.6
Q 166.7 26.8 163.85 26.8
L 159.65 26.8 159.65 30.45 161.45 30.45
Q 162.45 30.45 162.45 31.45
L 162.45 46.35
Q 162.45 49.2 165.25 49.2
M 162.5 22.4
L 166.4 22.4 166.4 17.9 162.5 17.9 162.5 22.4 Z"/>
</g>

<g id="Icon_0_Layer0_0_FILL">
<path fill="#333333" stroke="none" d="
M 2639.35 1179
Q 2635.6 1182.8 2632.2 1186.75 2600.05 1223.5 2598.8 1273 2598.75 1275 2598.75 1277.05 2598.75 1312.3 2614.1 1341.25 2623.7 1359.45 2639.35 1375.1 2680 1415.7 2737.4 1415.7 2794.8 1415.7 2835.45 1375.1 2851.1 1359.45 2860.75 1341.25 2876.05 1312.3 2876.05 1277.05 2876.05 1275 2876 1273 2875.35 1247.85 2866.8 1226 2856.65 1200.2 2835.45 1179 2794.8 1138.4 2737.4 1138.4 2680 1138.4 2639.35 1179 Z"/>
</g>

<g id="Icon_0_Layer0_1_FILL">
<path fill="#DA3F43" stroke="none" d="
M 2287.2 1165.6
Q 2281.9 1168.55 2276.85 1172.1 2267.2 1178.8 2258.5 1187.5 2255.05 1190.95 2251.95 1194.6 2248.1 1198.95 2244.75 1203.55 2230.95 1222.4 2225.3 1244.65 2223.4 1251.9 2222.45 1259.5 2221.35 1268.05 2221.35 1277.05 2221.35 1309.25 2235.4 1335.7 2244.2 1352.3 2258.5 1366.6 2295.6 1403.7 2348 1403.7 2400.45 1403.7 2437.55 1366.6 2451.9 1352.3 2460.7 1335.7 2474.65 1309.25 2474.65 1277.05 2474.65 1268.05 2473.55 1259.5 2472.6 1251.9 2470.75 1244.65 2468.9 1237.3 2466.25 1230.4 2460.65 1216.25 2451.4 1203.55 2445.25 1195.2 2437.55 1187.5 2400.45 1150.4 2348 1150.4 2314.45 1150.4 2287.2 1165.6 Z"/>
</g>

<g id="Symbol_2_0_Layer0_0_FILL">
<path fill="#000000" stroke="none" d="
M 99.35 20.25
Q 57 78 0.1 101.6 -56.8 125.15 -94.95 100.7 -108.7 91.95 -117.1 78.8 -107.85 97.55 -91.85 113.55 -53.8 151.6 0 151.6 53.8 151.6 91.85 113.55 129.9 75.5 129.9 21.7 129.9 -0.1 123.7 -19.3 113.8 0.5 99.35 20.25 Z"/>

<path fill="#000000" fill-opacity="0.2980392156862745" stroke="none" d="
M 90.65 -71.35
Q 61.2 -100.15 22.45 -106.45 11.6 -86.65 0 -67.4 -53.8 21.95 -91.85 47.1 -107.85 57.7 -117.1 54.3 -128 50.35 -129.65 27.15 -128.4 53.05 -117.1 66.5 -107.85 77.5 -91.85 80.1 -53.8 86.35 0 41.35 52.95 -2.95 90.65 -71.35 Z"/>

<path fill="#000000" fill-opacity="0.6" stroke="none" d="
M 91.85 -70.15
Q 91.25 -70.75 90.65 -71.35 52.95 -2.95 0 41.35 -53.8 86.35 -91.85 80.1 -107.85 77.5 -117.1 66.5 -128.4 53.05 -129.65 27.15
L -129.9 20.1
Q -129.9 20.9 -129.9 21.7 -129.9 52.9 -117.1 78.8 -108.7 91.95 -94.95 100.7 -56.8 125.15 0.1 101.6 57 78 99.35 20.25 113.8 0.5 123.7 -19.3 122.55 -22.75 121.25 -26.15 111.7 -50.3 91.85 -70.15 Z"/>
</g>

<g id="Icon_0_Layer0_5_FILL">
<path fill="#FFCC00" stroke="none" d="
M 44.8 -1.9
Q 44.55 -2.7 43.95 -3.2 43.35 -3.75 42.45 -3.75 41.6 -3.75 41 -3.2 40.35 -2.7 40.25 -1.9
L 36.4 17.45 36.4 17.5
Q 34.6 27.8 24.95 30.2
L 15.7 32.65
Q 14.9 32.9 14.45 33.55 13.95 34.1 13.9 34.75 13.9 34.9 13.9 34.95 13.9 35.75 14.4 36.35 14.8 37 15.6 37.25
L 24.9 39.7
Q 24.95 39.7 25.05 39.7 34.6 41.95 36.4 52.35
L 36.4 52.4 40.25 71.75
Q 40.35 72.5 41 73.05 41.6 73.6 42.45 73.6 43.35 73.6 43.95 73.05 44.55 72.5 44.8 71.75
L 48.7 52.4 48.7 52.35
Q 50.45 41.95 60.1 39.7
L 60.15 39.7 69.45 37.25
Q 70.25 37 70.65 36.35 71.15 35.75 71.15 34.95 71.15 34.9 71.15 34.75 71.1 34.1 70.65 33.55 70.15 32.9 69.45 32.65
L 60.15 30.2 60.1 30.2
Q 50.45 27.8 48.7 17.45
L 48.7 17.35 44.8 -1.9
M 5.1 -55.5
Q 5.1140625 -55.5248046875 5.1 -55.55 -0.25 -65.2 -3.05 -79.2 -5.3 -90.65 -5.75 -104.6
L -6.9 -127.95 -16.65 -127.95 -17.75 -104.6
Q -18.15 -90.6 -20.45 -79.2 -22.8048828125 -67.1681640625 -27.1 -58.4 -27.82421875 -56.92890625 -28.6 -55.55 -29.45 -53.95 -30.4 -52.55 -30.7431640625 -52.1380859375 -32 -50.75 -33.98515625 -48.784375 -36.25 -47.25 -42.508203125 -43.0060546875 -50.9 -42.05 -51.1 -42.05 -51.25 -42.05
L -63.3 -40.3
Q -64.95 -40.05 -66 -39.15 -67.05 -38.15 -67.05 -36.95 -67.05 -35.8 -66 -34.8 -64.95 -33.8 -63.3 -33.65
L -51.25 -31.9
Q -51.1 -31.9 -50.9 -31.9 -39.05 -30.5 -31.45 -22.65 -30.872265625 -22.044140625 -30.35 -21.4 -29.4267578125 -20.01484375 -28.55 -18.45 -23.2123046875 -8.7421875 -20.45 5.2 -18.155859375 16.7080078125 -17.7 30.6
L -14.95 87.3
Q -14.903125 88.2365234375 -14 88.9 -12.996875 89.546875 -11.75 89.55 -10.4265625 89.546875 -9.5 88.9 -8.5595703125 88.2365234375 -8.5 87.3
L -5.75 30.6
Q -5.3130859375 16.65 -3 5.2 -0.2716796875 -8.8099609375 5.15 -18.45 5.976953125 -20.01484375 6.95 -21.4 7.46328125 -21.99140625 8 -22.65 15.5 -30.5 27.6 -31.9 27.7 -31.9 27.95 -31.9
L 39.8 -33.65
Q 41.4 -33.8 42.45 -34.8 43.6 -35.8 43.6 -36.95 43.6 -38.15 42.6 -39.15 41.5 -40.05 39.8 -40.3
L 27.95 -42.05
Q 27.75 -42.05 27.6 -42.05 16.64140625 -43.27265625 9.45 -49.95 9.1 -50.3 8.75 -50.65 8.35 -51.05 8 -51.4 7.4 -52.05 6.9 -52.7 6.4 -53.35 6 -54 5.55 -54.75 5.1 -55.5 Z"/>
</g>

<g id="Layer0_2_FILL">
<path fill="#DA3F43" stroke="none" d="
M 2197.3 1051.15
Q 2194.25 1052.8 2191.55 1054.75 2178.1 1064.6 2173.6 1083.15
L 2172.8 1085.95
Q 2171.85 1089.55 2171.3 1093.45 2169.95 1103 2171.15 1111.55 2171.55 1114.2 2172.15 1116.8 2180.5 1151.75 2229.65 1157.9
L 2234.4 1123.35 2234.9 1119.9
Q 2234.75 1119.9 2234.6 1119.9 2232.8 1120.05 2232.2 1120.05 2232.1 1120.05 2232.05 1120.05 2219.25 1119.75 2211.3 1111.55 2210.2 1110.4 2209.2 1109.15 2200.65 1098.5 2203.7 1083.55 2206.55 1069.55 2218.1 1059.25 2221 1056.7 2224.05 1054.75 2233.1 1048.9 2243.6 1048
L 2244.55 1047.9 2244.85 1045.65
Q 2243.2 1045.25 2240.55 1044.9 2234.75 1044.15 2228.8 1044.15 2210.45 1044.15 2197.3 1051.15 Z"/>

<path fill="#FFCC00" stroke="none" d="
M 2268.1 1055.95
Q 2277.6 1065.1 2276.6 1079.65 2275.4 1095.05 2263.05 1107.05 2260.45 1109.55 2257.75 1111.55 2253.2 1114.85 2248.25 1116.85 2242.4 1119.25 2234.9 1119.9
L 2234.4 1123.35 2247.3 1125.75
Q 2247.8 1125.85 2248.25 1125.9 2263.5 1127.8 2276.25 1126.25 2297.7 1123.6 2308 1111.55 2317.75 1100.1 2317.45 1080.15 2317.85 1076.5 2317.3 1071.05 2316.45 1062.3 2313.35 1054.75 2312.55 1052.85 2311.65 1051.05 2297.15 1021.85 2252.85 1021.85 2249.85 1021.85 2248.25 1021.95 2248.2 1021.95 2248.15 1021.95
L 2244.85 1045.65 2244.55 1047.9 2244.85 1047.85
Q 2246.6 1047.75 2248.25 1047.85 2259.05 1048.2 2266.8 1054.75 2267.45 1055.35 2268.1 1055.95 Z"/>
</g>

<path id="Layer0_0_1_STROKES" stroke="#D8FFFF" stroke-width="3" stroke-linejoin="round" stroke-linecap="round" fill="none" d="
M 74.45 8.4
L 74.45 63.3"/>

<path id="Icon_0_Layer0_0_1_STROKES" stroke="#333333" stroke-width="4" stroke-linejoin="round" stroke-linecap="butt" fill="none" d="
M 2835.45 1375.1
Q 2851.1 1359.45 2860.75 1341.25 2876.05 1312.3 2876.05 1277.05 2876.05 1275 2876 1273 2875.35 1247.85 2866.8 1226 2856.65 1200.2 2835.45 1179 2794.8 1138.4 2737.4 1138.4 2680 1138.4 2639.35 1179 2635.6 1182.8 2632.2 1186.75 2600.05 1223.5 2598.8 1273 2598.75 1275 2598.75 1277.05 2598.75 1312.3 2614.1 1341.25 2623.7 1359.45 2639.35 1375.1 2680 1415.7 2737.4 1415.7 2794.8 1415.7 2835.45 1375.1 Z"/>

<path id="Icon_0_Layer0_3_1_STROKES" stroke="#333333" stroke-width="8" stroke-linejoin="round" stroke-linecap="round" fill="none" d="
M 2826.9 1366.6
Q 2841.25 1352.3 2850.05 1335.7 2864 1309.25 2864 1277.05 2864 1268.05 2862.9 1259.5 2861.95 1251.9 2860.1 1244.65 2858.25 1237.3 2855.6 1230.4 2850 1216.25 2840.75 1203.55 2834.6 1195.2 2826.9 1187.5 2789.8 1150.4 2737.35 1150.4 2703.8 1150.4 2676.55 1165.6 2671.25 1168.55 2666.2 1172.1 2656.55 1178.8 2647.85 1187.5 2644.4 1190.95 2641.3 1194.6 2637.45 1198.95 2634.1 1203.55 2620.3 1222.4 2614.65 1244.65 2612.75 1251.9 2611.8 1259.5 2610.7 1268.05 2610.7 1277.05 2610.7 1309.25 2624.75 1335.7 2633.55 1352.3 2647.85 1366.6 2684.95 1403.7 2737.35 1403.7 2789.8 1403.7 2826.9 1366.6 Z"/>

<path id="Icon_0_Layer0_4_1_STROKES" stroke="#FFCC00" stroke-width="8" stroke-linejoin="round" stroke-linecap="butt" fill="none" d="
M 2641.65 1194.95
Q 2644.75 1191.3 2648.2 1187.85 2685.2 1150.9 2737.5 1150.9 2789.75 1150.9 2826.7 1187.85 2846 1207.15 2855.3 1230.65 2856.55 1233.95 2857.7 1237.3 2863.75 1255.95 2863.75 1277.1 2863.75 1329.4 2826.7 1366.4 2789.75 1403.35 2737.5 1403.35 2685.2 1403.35 2648.2 1366.4 2632.65 1350.85 2623.7 1332.6 2611.25 1307.4 2611.25 1277.1 2611.25 1229.7 2641.6 1195"/>

<path id="Icon_0_Layer0_4_2_STROKES" stroke="#FFCC00" stroke-width="4" stroke-linejoin="round" stroke-linecap="butt" fill="none" d="
M 2641.6 1195
L 2641.65 1194.95"/>
</defs>

<g transform="matrix( 1, 0, 0, 1, 0,0) ">
<use xlink:href="#Layer0_0_FILL"/>

<use xlink:href="#Layer0_0_1_STROKES"/>
</g>

<g transform="matrix( 0.1832733154296875, 0, 0, 0.1832733154296875, 117.6,35.85) ">
<g transform="matrix( 1, 0, 0, 1, -2737.4,-1277.05) ">
<use xlink:href="#Icon_0_Layer0_0_FILL"/>

<use xlink:href="#Icon_0_Layer0_0_1_STROKES"/>
</g>

<g transform="matrix( 1, 0, 0, 1, -2348.05,-1277.05) ">
<use xlink:href="#Icon_0_Layer0_1_FILL"/>
</g>

<g transform="matrix( 0.954315185546875, 0, 0, 0.954315185546875, -0.05,-21.2) ">
<g transform="matrix( 1, 0, 0, 1, 0,0) ">
<use filter="url(#Filter_1)" xlink:href="#Symbol_2_0_Layer0_0_FILL"/>
</g>
</g>

<g transform="matrix( 1, 0, 0, 1, -2737.4,-1277.05) ">
<use xlink:href="#Icon_0_Layer0_3_1_STROKES"/>
</g>

<g transform="matrix( 1, 0, 0, 1, -2737.4,-1277.05) ">
<use xlink:href="#Icon_0_Layer0_4_1_STROKES"/>

<use xlink:href="#Icon_0_Layer0_4_2_STROKES"/>
</g>

<g transform="matrix( 1, 0, 0, 1, 0,0) ">
<use xlink:href="#Icon_0_Layer0_5_FILL"/>
</g>
</g>

<g transform="matrix( 0.3388519287109375, 0, 0, 0.3388519287109375, -727.9,-331.8) ">
<use xlink:href="#Layer0_2_FILL"/>
</g>
</svg>
