
<svg xmlns="http://www.w3.org/2000/svg" version="1.1" xmlns:xlink="http://www.w3.org/1999/xlink" preserveAspectRatio="none" x="0px" y="0px" width="200px" height="200px" viewBox="0 0 200 200">
<defs>
<g id="Icon_one_color_0_Layer0_0_FILL">
<path fill="#000000" stroke="none" d="
M -10 -63.4
L -9.6 -70.95
Q -33.0828125 -68.0171875 -50.55 -50.55 -52.5 -48.6 -54.25 -46.55 -61.55 -38.2 -65.75 -28.6 -71.5 -15.5 -71.5 0 -71.5 15.5 -65.75 28.6 -60.5 40.55 -50.55 50.5 -29.6 71.45 0 71.45 8.25 71.45 15.85 69.85 35.4 65.6 50.5 50.5 71.45 29.55 71.45 0 71.45 -14.2 66.65 -26.3 61.45 -39.6 50.5 -50.55 35.4 -65.65 15.85 -69.85 8.25 -71.5 0 -71.5 -3.4158203125 -71.5 -6.75 -71.25
L -6.35 -63.85
Q -3.228515625 -64.1 0 -64.1 8.3 -64.1 15.85 -62.25 32.4 -58.25 45.25 -45.35 55.05 -35.55 59.8 -23.65 60.4 -21.95 60.95 -20.3 64.1 -10.8 64.1 0 64.1 26.5 45.25 45.25 32.4 58.15 15.85 62.2 8.3 64 0 64 -26.55 64 -45.3 45.25 -53.2 37.35 -57.8 28.1 -64.1 15.35 -64.1 0 -64.1 -24.1 -48.7 -41.7
L -48.65 -41.7
Q -47.05 -43.6 -45.3 -45.35 -30.1771484375 -60.4728515625 -10 -63.4
M -10.6 -50.95
L -10.15 -60.05 -10.6 -60 -10.6 -60.05
Q -29.07890625 -57.0103515625 -43 -43.05 -44.65 -41.4 -46.15 -39.65 -46.25 -39.55 -46.3 -39.45 -59.35 -24.5 -60.6 -4.6 -60.6 -4.5 -60.65 -4.4
L -60.8 -0.9
Q -60.8 -0.85 -60.8 -0.8
L -60.8 -0.7
Q -60.8 -0.45 -60.8 -0.15 -60.75 14.3 -54.9 26.35 -54.85 26.4 -54.85 26.45
L -54.8 26.5
Q -54.8 26.55 -54.7 26.7 -50.4 35.35 -43 42.75 -25.25 60.55 -0.1 60.55 25.05 60.55 42.8 42.75 60.6 25 60.6 -0.15 60.6 -10.2 57.75 -19 57.7158203125 -19.137109375 57.7 -19.25
L 57.7 -19.35
Q 57.1 -20.95 56.55 -22.45 56.5 -22.6 56.45 -22.7 52 -33.9 42.8 -43.05 42.6 -43.3 42.35 -43.5
L 42.2 -43.65
Q 29.348046875 -56.1736328125 12.8 -59.55
L 8.75 -60.25
Q 4.437109375 -60.85 -0.1 -60.85 -2.9298828125 -60.85 -5.7 -60.65
L -5.7 -60.6 -6.2 -60.55 -5.7 -50.95
Q -5.55 -45.3 -4.6 -40.65 -3.5 -34.95 -1.35 -31.05 -0.95 -30.4 -0.6 -29.85 -0.4 -29.6 -0.15 -29.3 2.95 -26.15 7.75 -25.55 7.85 -25.55 7.95 -25.55
L 12.8 -24.9
Q 13.5 -24.8 13.9 -24.4 14.3 -24 14.3 -23.5 14.3 -23.05 13.9 -22.65 13.5 -22.25 12.8 -22.15
L 7.95 -21.45
Q 7.85 -21.45 7.75 -21.45 4.35 -21.05 1.85 -19.35 0.9 -18.7 0.1 -17.95 -0.4 -17.35 -0.55 -17.15 -0.95 -16.6 -1.3 -15.95 -1.6 -15.4 -1.85 -14.8 -3.65 -11.25 -4.6 -6.35 -5.55 -1.75 -5.7 3.95
L -6.85 26.85
Q -6.85 27.2 -7.25 27.5 -7.6 27.75 -8.15 27.75 -8.65 27.75 -9.1 27.5 -9.45 27.2 -9.45 26.85
L -10.55 3.95
Q -10.75 -1.7 -11.65 -6.35 -12.8 -12.05 -15 -15.95
L -15 -16
Q -15.15 -16.3 -15.35 -16.6 -15.5 -16.85 -15.7 -17.1 -15.9 -17.4 -16.15 -17.65 -16.3 -17.8 -16.45 -17.95 -16.6 -18.1 -16.75 -18.25 -19.65 -20.95 -24.1 -21.45 -24.2 -21.45 -24.25 -21.45
L -29.05 -22.15
Q -29.75 -22.25 -30.2 -22.65 -30.6 -23.05 -30.6 -23.5 -30.6 -24 -30.15 -24.4 -29.7 -24.8 -29.05 -24.9
L -24.25 -25.55
Q -24.15 -25.55 -24.1 -25.55 -19.2 -26.15 -16.15 -29.3 -15.95 -29.6 -15.7 -29.85 -15.35 -30.4 -15 -31.05 -12.8 -34.95 -11.7 -40.65 -10.75 -45.25 -10.6 -50.95
M 12.8 -12.8
Q 12.85 -13.15 13.1 -13.35 13.35 -13.55 13.7 -13.55 14.05 -13.55 14.3 -13.35 14.55 -13.15 14.65 -12.8
L 16.25 -5.05 16.25 -5
Q 16.95 -0.85 20.8 0.15
L 20.85 0.15 24.6 1.1
Q 24.85 1.2 25.05 1.5 25.25 1.7 25.25 1.95
L 25.25 2.05
Q 25.25 2.35 25.05 2.6 24.9 2.85 24.6 2.95
L 20.85 3.95 20.8 3.95
Q 16.95 4.85 16.25 9.05
L 16.25 9.1 14.65 16.9
Q 14.55 17.2 14.3 17.4 14.05 17.6 13.7 17.6 13.35 17.6 13.1 17.4 12.85 17.2 12.8 16.9
L 11.25 9.1 11.25 9.05
Q 10.55 4.85 6.7 3.95
L 6.65 3.95 2.9 2.95
Q 2.55 2.85 2.4 2.6 2.2 2.35 2.2 2.05
L 2.2 1.95
Q 2.2 1.7 2.4 1.5 2.6 1.2 2.9 1.1
L 6.65 0.15
Q 10.55 -0.85 11.25 -5
L 12.8 -12.8
M 55.3 -9.45
Q 56 -4.95 56 -0.15 56 23.1 39.55 39.5 23.15 55.95 -0.1 55.95 -20.15 55.95 -35.15 43.7 -19.45 48.2 1.25 39.65 28.2 28.5 48.2 1.2 52.1 -4.1 55.3 -9.45 Z"/>
</g>
</defs>

<g transform="matrix( 1.3990936279296875, 0, 0, 1.3990936279296875, 100.5,100) ">
<g transform="matrix( 1, 0, 0, 1, 0,0) ">
<use xlink:href="#Icon_one_color_0_Layer0_0_FILL"/>
</g>
</g>
</svg>
