
<svg xmlns="http://www.w3.org/2000/svg" version="1.1" xmlns:xlink="http://www.w3.org/1999/xlink" preserveAspectRatio="none" x="0px" y="0px" width="100px" height="45px" viewBox="0 0 100 45">
<defs>
<filter id="Filter_1" x="-20%" y="-20%" width="140%" height="140%" color-interpolation-filters="sRGB">
<feColorMatrix in="SourceGraphic" type="matrix" values="0 0 0 0 0.615686274509804 0 0 0 0 0.3568627450980392 0 0 0 0 0.3803921568627451 0 0 0 1 0" result="result1"/>
</filter>

<g id="Symbol_5_0_Layer0_0_FILL">
<path fill="#DA3F43" stroke="none" d="
M 87.45 9.5
Q 86.7390625 8.7962890625 85.7 8.8
L 26.45 8.8
Q 25.4107421875 8.7962890625 24.65 9.5 23.9462890625 10.2607421875 23.95 11.3 23.9462890625 12.3390625 24.65 13.05 25.4107421875 13.803515625 26.45 13.8
L 85.7 13.8
Q 86.7390625 13.803515625 87.45 13.05 88.203515625 12.3390625 88.2 11.3 88.203515625 10.2607421875 87.45 9.5
M -87.55 -9.55
Q -86.7892578125 -8.796484375 -85.75 -8.8
L -26.5 -8.8
Q -25.4609375 -8.796484375 -24.75 -9.55 -23.996484375 -10.2609375 -24 -11.3 -23.996484375 -12.3392578125 -24.75 -13.1 -25.4609375 -13.8037109375 -26.5 -13.8
L -85.75 -13.8
Q -86.7892578125 -13.8037109375 -87.55 -13.1 -88.2537109375 -12.3392578125 -88.25 -11.3 -88.2537109375 -10.2609375 -87.55 -9.55
M 6.3 -11.35
Q 6.28515625 -12.9794921875 5.1 -14.15 3.9224609375 -15.31328125 2.25 -15.3 0.6205078125 -15.2931640625 -0.55 -14.15
L -11.25 -3.45 -68.3 -3.45
Q -69.7498046875 -3.45 -70.8 -2.45 -71.8 -1.3998046875 -71.8 0.05 -71.8 1.4998046875 -70.8 2.5 -69.7498046875 3.55 -68.3 3.55
L -18.25 3.55 -23.15 8.45
Q -23.3353515625 8.680859375 -23.5 8.9 -31.730078125 19.80859375 -23.3 28.95 -22.1685546875 30.2068359375 -20.55 30.3 -18.86875 30.38671875 -17.65 29.25 -16.3900390625 28.169921875 -16.3 26.5 -16.2146484375 24.871875 -17.35 23.6 -21.06953125 19.2142578125 -17.3 13.95
L 5.15 -8.5
Q 6.3130859375 -9.6697265625 6.3 -11.35
M 23.25 -29
Q 22.1685546875 -30.2068359375 20.5 -30.3 18.86875 -30.38671875 17.6 -29.3 16.3900390625 -28.169921875 16.3 -26.55 16.2146484375 -24.871875 17.3 -23.65 21.0705078125 -19.212890625 17.3 -14
L -5.15 8.45
Q -6.31328125 9.6697265625 -6.3 11.3 -6.28515625 12.9794921875 -5.1 14.15 -3.922265625 15.31328125 -2.3 15.3 -0.620703125 15.2931640625 0.55 14.1
L 11.1 3.55 68.35 3.55
Q 69.7998046875 3.55 70.8 2.5 71.85 1.4998046875 71.85 0.05 71.85 -1.3998046875 70.8 -2.45 69.7998046875 -3.45 68.35 -3.45
L 18.1 -3.45 23.15 -8.5
Q 23.3353515625 -8.6810546875 23.5 -8.9 31.7298828125 -19.80859375 23.25 -29
M -5.8 26.55
Q -5.55 26.9 -5.15 26.95
L 4.6 28.9 4.65 28.9
Q 9.85 29.8 11.05 34.65
L 12.3 39.35
Q 12.4 39.75 12.75 39.95 13.05 40.2 13.35 40.25 13.4 40.25 13.45 40.25 13.85 40.25 14.15 40 14.5 39.8 14.6 39.4
L 15.85 34.7
Q 15.85 34.65 15.85 34.6 17 29.8 22.25 28.9
L 32 26.95
Q 32.4 26.9 32.7 26.55 32.95 26.25 32.95 25.8 32.95 25.35 32.7 25.05 32.4 24.75 32 24.65
L 22.25 22.65
Q 17 21.8 15.85 16.9
L 14.6 12.2
Q 14.5 11.8 14.15 11.6 13.85 11.35 13.45 11.35 13.4 11.35 13.35 11.35 13.05 11.35 12.75 11.6 12.4 11.85 12.3 12.2
L 11.05 16.9
Q 9.85 21.8 4.6 22.65
L 4.55 22.65 -5.15 24.65
Q -5.55 24.75 -5.8 25.05 -6.1 25.35 -6.1 25.8 -6.1 26.25 -5.8 26.55
M 5.8 -26.55
Q 5.5 -26.85 5.1 -26.95
L -4.65 -28.95
Q -9.9 -29.8 -11.05 -34.7
L -12.3 -39.4
Q -12.4 -39.8 -12.75 -40 -13.05 -40.25 -13.45 -40.25 -13.5 -40.25 -13.55 -40.25 -13.85 -40.25 -14.15 -40 -14.5 -39.75 -14.6 -39.4
L -15.85 -34.7
Q -17.05 -29.8 -22.3 -28.95
L -22.35 -28.95 -32.05 -26.95
Q -32.45 -26.85 -32.7 -26.55 -33 -26.25 -33 -25.8 -33 -25.35 -32.7 -25.05 -32.45 -24.7 -32.05 -24.65
L -22.3 -22.7 -22.25 -22.7
Q -17.05 -21.8 -15.85 -16.95
L -14.6 -12.25
Q -14.5 -11.85 -14.15 -11.65 -13.85 -11.4 -13.55 -11.35 -13.5 -11.35 -13.45 -11.35 -13.05 -11.35 -12.75 -11.6 -12.4 -11.8 -12.3 -12.2
L -11.05 -16.9
Q -11.05 -16.95 -11.05 -17 -9.9 -21.8 -4.65 -22.7
L 5.1 -24.65
Q 5.5 -24.7 5.8 -25.05 6.05 -25.35 6.05 -25.8 6.05 -26.25 5.8 -26.55 Z"/>
</g>
</defs>

<g transform="matrix( 0.499847412109375, 0, 0, 0.5, 50,22.5) ">
<g transform="matrix( 1, 0, 0, 1, 0,0) ">
<use filter="url(#Filter_1)" xlink:href="#Symbol_5_0_Layer0_0_FILL"/>
</g>
</g>
</svg>
